<svg width="24" height="25" viewBox="0 0 24 25" fill="none" xmlns="http://www.w3.org/2000/svg">
<path d="M14.5299 9.96998L9.46992 15.03C8.81992 14.38 8.41992 13.49 8.41992 12.5C8.41992 10.52 10.0199 8.91998 11.9999 8.91998C12.9899 8.91998 13.8799 9.31998 14.5299 9.96998Z" stroke="#242424" stroke-width="1.5" stroke-linecap="round" stroke-linejoin="round"/>
<path d="M17.8201 6.26998C16.0701 4.94998 14.0701 4.22998 12.0001 4.22998C8.47009 4.22998 5.18009 6.30998 2.89009 9.90998C1.99009 11.32 1.99009 13.69 2.89009 15.1C3.68009 16.34 4.60009 17.41 5.60009 18.27" stroke="#242424" stroke-width="1.5" stroke-linecap="round" stroke-linejoin="round"/>
<path d="M8.41992 20.03C9.55992 20.51 10.7699 20.77 11.9999 20.77C15.5299 20.77 18.8199 18.69 21.1099 15.09C22.0099 13.68 22.0099 11.31 21.1099 9.89999C20.7799 9.37999 20.4199 8.88999 20.0499 8.42999" stroke="#242424" stroke-width="1.5" stroke-linecap="round" stroke-linejoin="round"/>
<path d="M15.5104 13.2002C15.2504 14.6102 14.1004 15.7602 12.6904 16.0202" stroke="#242424" stroke-width="1.5" stroke-linecap="round" stroke-linejoin="round"/>
<path d="M9.47 15.03L2 22.5" stroke="#242424" stroke-width="1.5" stroke-linecap="round" stroke-linejoin="round"/>
<path d="M22.0003 2.5L14.5303 9.97" stroke="#242424" stroke-width="1.5" stroke-linecap="round" stroke-linejoin="round"/>
</svg>
