<svg width="18" height="20" viewBox="0 0 18 20" fill="none" xmlns="http://www.w3.org/2000/svg">
<path d="M9.00011 -0.00378418C13.05 -0.00378418 16.3568 3.19096 16.4959 7.24527L16.5001 7.49622V11.5932L17.8801 14.7492C17.9492 14.9071 17.9848 15.0776 17.9848 15.25C17.9848 15.9403 17.4252 16.5 16.7348 16.5L12.0001 16.5015C12.0001 18.1583 10.657 19.5015 9.00011 19.5015C7.40243 19.5015 6.09645 18.2526 6.0052 16.6778L5.99966 16.4992L1.27498 16.5C1.10364 16.5 0.934128 16.4648 0.776974 16.3965C0.143772 16.1215 -0.146577 15.3852 0.128462 14.752L1.50011 11.5941V7.49611C1.50071 3.34132 4.8522 -0.00378418 9.00011 -0.00378418ZM10.4997 16.4992L7.50011 16.5015C7.50011 17.3299 8.17168 18.0015 9.00011 18.0015C9.77981 18.0015 10.4206 17.4066 10.4932 16.6459L10.4997 16.4992ZM9.00011 1.49622C5.67995 1.49622 3.00059 4.17047 3.00011 7.49622V11.9058L1.65613 15H16.3526L15.0001 11.9068L15.0002 7.50907L14.9965 7.28387C14.8854 4.0504 12.2417 1.49622 9.00011 1.49622Z" fill="#242424"/>
</svg>
